<mxfile host="app.diagrams.net" modified="2023-04-17T08:42:50.110Z" agent="Mozilla/5.0 (Macintosh; Intel Mac OS X 10.15; rv:109.0) Gecko/20100101 Firefox/111.0" version="21.1.4" etag="Ii1HT-nv07xaDgtFqE0X" type="github">
  <diagram name="Страница 1" id="JfJnj5_jnhiW0N_1B2hb">
    <mxGraphModel>
      <root>
        <mxCell id="0" />
        <mxCell id="1" parent="0" />
      </root>
    </mxGraphModel>
  </diagram>
</mxfile>
